<mxfile host="app.diagrams.net" modified="2020-06-25T14:19:40.579Z" agent="5.0 (X11)" etag="V6qoZc5lgKmog8U1XTyx" version="13.3.4" type="github">
  <diagram id="yGiGGLOthiXHAngy8Tl7" name="Page-1">
    <mxGraphModel dx="868" dy="492" grid="1" gridSize="10" guides="1" tooltips="1" connect="1" arrows="1" fold="1" page="1" pageScale="1" pageWidth="850" pageHeight="1100" math="0" shadow="0">
      <root>
        <mxCell id="0" />
        <mxCell id="1" parent="0" />
        <mxCell id="yVWbq-8xWhXRqSndZH2m-1" value="" style="shape=mxgraph.bpmn.shape;html=1;verticalLabelPosition=bottom;labelBackgroundColor=#ffffff;verticalAlign=top;align=center;perimeter=ellipsePerimeter;outlineConnect=0;outline=end;symbol=terminate;" parent="1" vertex="1">
          <mxGeometry x="50" y="500" width="30" height="30" as="geometry" />
        </mxCell>
        <mxCell id="yVWbq-8xWhXRqSndZH2m-2" value="Task" style="shape=ext;rounded=1;html=1;whiteSpace=wrap;fillColor=#dae8fc;strokeColor=#6c8ebf;" parent="1" vertex="1">
          <mxGeometry x="425" y="190" width="100" height="60" as="geometry" />
        </mxCell>
        <mxCell id="yVWbq-8xWhXRqSndZH2m-3" value="" style="ellipse;whiteSpace=wrap;html=1;aspect=fixed;fillColor=#000000;" parent="1" vertex="1">
          <mxGeometry x="465" y="90" width="30" height="30" as="geometry" />
        </mxCell>
      </root>
    </mxGraphModel>
  </diagram>
</mxfile>
